<svg xmlns="http://www.w3.org/2000/svg" id="_レイヤー_2" data-name="レイヤー 2" viewBox="0 0 163 23"><defs><style>.cls-1{stroke-width:.74px}.cls-1,.cls-3,.cls-6{stroke:#251e1c;fill:none}.cls-1{stroke-miterlimit:10}.cls-3,.cls-6{stroke-linecap:round;stroke-linejoin:round}.cls-3{stroke-width:.62px}.cls-6{stroke-width:.65px}.cls-9{fill:#251e1c;stroke-width:0}</style></defs><g id="_レイヤー_1-2" data-name="レイヤー 1"><circle cx="81.38" cy="11.29" r="11.29" style="fill:#bcd0a8;stroke-width:0"/><path d="M81.05 8.89c-.56 0-1.08.16-1.52.42h.04c.82 0 1.48.66 1.48 1.48s-.66 1.48-1.48 1.48c-.67 0-1.23-.44-1.42-1.04-.04.2-.07.41-.07.62a2.97 2.97 0 1 0 2.97-2.97Z" class="cls-9"/><path d="M73.85 11.41s3.19-3.43 7.14-3.43 7.76 3.43 7.76 3.43" style="stroke-width:.62px;stroke-miterlimit:10;fill:none;stroke:#251e1c"/><circle cx="46.33" cy="11.29" r="11.29" style="fill:#ebd97d;stroke-width:0"/><path d="M42.16 10s-.23-5.44 4.28-5.44 4.4 3.82 4.4 5.44c0 2.41-3.36 4.63-3.59 5.67s-.81 3.01-2.78 3.01-2.32-1.39-2.32-2.66V10Z" class="cls-1"/><path d="M48.61 10.77s.83-4.01-2.15-4.01-2.42 4.5-2.42 4.5 1.88-.38 1.88 1.45.54 3.61-.92 3.61-1.01-1.75-1.01-1.75l1.94-1.27" class="cls-1"/><circle cx="151.47" cy="11.29" r="11.29" style="fill:#cfadcd;stroke-width:0"/><path d="M149.29 18.85v-2.53s-2.16-.63-2.16-2.16V9.37c0-.78.75-.91 1.08-.89M150.13 9.97s1.25-.67 3.68-.18" class="cls-6"/><path d="M151.13 13.78s-.77-1.25-2.19-1.25V5.49s-.09-1.37.71-1.37M150.62 9.79V4.66s-.09-1.37.71-1.37M153.54 9.61V5.48s.09-1.37-.71-1.37M154.43 6.2c.8 0 .71 1.37.71 1.37v7.23s-.45 1.17-1.33 2.05v2.45M151.9 3.59s.23.02.23.65v5.38" class="cls-6"/><circle cx="116.43" cy="11.29" r="11.29" style="fill:#8a91c4;stroke-width:0"/><path d="m116.68 5.78-4.17 6.43s-1.54 2.54 0 4.08 3.44-.82 4.17-.91 2.17.18 2.17.18" class="cls-3"/><path d="M118.86 12.92s.7-.3 1.66.65.6 3.24-1.51 3.12c-1.21-.07-2.72-.99-2.72-.99" class="cls-3"/><circle cx="11.29" cy="11.29" r="11.29" style="stroke-width:0;fill:#d49698"/><path d="m16.49 9.81.02.07s-1.1 3.41-5.34 3.41-5.39-3.41-5.39-3.41l.02-.08c1.01.23 2.69.47 5.37.47s4.32-.23 5.31-.46h.01Z" class="cls-9"/><path d="M5.78 9.88s1.15 3.41 5.39 3.41 5.34-3.41 5.34-3.41" style="stroke-width:.3px;stroke-linecap:round;stroke-linejoin:round;fill:none;stroke:#251e1c"/><path d="M4.49 9.37s.34.22 1.31.44c1.01.23 2.69.47 5.37.47s4.32-.23 5.31-.46c.97-.22 1.31-.45 1.31-.45" class="cls-3"/><path d="M8.2 12.09s-.22 4.11 2.94 4.11 2.94-4.11 2.94-4.11-.95-.76-1.47-.76-1.12.46-1.47.46-.95-.46-1.47-.46-1.47.76-1.47.76Z" style="fill:#d49698;stroke-width:.62px;stroke-linecap:round;stroke-linejoin:round;stroke:#251e1c"/><path d="M11.14 11.78v2.96" style="stroke-width:.55px;stroke-linecap:round;stroke-linejoin:round;fill:none;stroke:#251e1c"/></g></svg>