<?xml version="1.0" encoding="UTF-8"?>
<svg id="a" data-name="レイヤー 1" xmlns="http://www.w3.org/2000/svg" viewBox="0 0 342.42 268.32">
  <defs>
    <style>
      .b {
        fill: #040000;
        stroke-width: 0px;
      }
    </style>
  </defs>
  <g>
    <path class="b" d="m233.77,246.46c-1.02-3.63-3.36-6.74-7.15-8.05-1.14-.39-2.33-.59-3.54-.59-2.13,0-3.47.63-4.92,1.51,0,0-.09.1-.09.17v4.64c0,.15.16.22.27.13,1.86-1.5,4.25-1.81,5.7-1.62,1.77.23,3.33,1.42,4.25,2.94,2.27,3.77.95,10-2.11,13.08-2,2.02-6.1,3.75-9.91,3.75-.27,0-.62.05-.87-.12-.29-.2-.32-.26-.32-.61-.03-4.88-.06-10.12-.1-15-.06-7.6-.12-15.2-.18-22.8-.01-1.58-.03-3.16-.04-4.73h-4.72s.3,42.16.3,45.47v2.13c0,.11.08.19.19.2l2.14.14c1.08.07,2.52-.04,3.51-.04,6.15,0,12.54-2.25,15.92-7.67,2.26-3.62,2.89-8.64,1.68-12.93Z"/>
    <rect class="b" x="239.43" y="219.17" width="46.36" height="4.73"/>
    <path class="b" d="m279.03,234.11l-17.72.17c-.23,0-.18-.03-.34.13-.82.87-2.02,2.31-6.22,4.48-.07.03-.04.13.04.13l20.43-.12v8.77h-25.9v-9.51c1.29-.52,3.13-1.41,5.08-2.83,1.39-1.07,2.45-2.11,2.87-2.54,2.2-2.24,3.24-6.32,3.41-7.04.01-.06-.03-.11-.09-.11h-4.66s-.09.03-.11.08c-.13.47-.86,2.88-2.75,4.6-3.12,2.85-6.57,3.84-6.71,3.88l-1.75.47-.05,32.49,30.61-.02v.03h3.82c.5,0,.91-.4.92-.91l.05-31.24c0-.51-.41-.92-.93-.92Zm-3.83,18.3l-.02,10-25.88.02.02-10.02h25.88Z"/>
    <path class="b" d="m337.99,255.8c-.08-.02-.16.03-.19.11-1.5,3.91-4.3,7.16-8.88,6.94-6.56-.31-8.55-6.83-8.15-12.38l.17-2.35c0-.1-.07-.19-.17-.19l-17.39-.02c-.08,0-.16.06-.17.14-.13.76-.88,4.53-2.95,7.62-2.93,4.37-12.18,6.72-13.52,7.04-.09.02-.15.11-.13.2l.81,4.19c.02.1.11.16.2.14,1.5-.31,12.45-2.79,16.57-8.94,1.56-2.33,2.42-4.24,2.88-5.53.02-.07.08-.11.16-.11,1.04,0,8.73,0,8.79,0-.19.04.57,5.14.69,5.58,1.59,5.86,7.24,9.42,13.2,9.12,5.84-.3,10.7-3.74,12.51-10.44.03-.1-.03-.2-.13-.22-.65-.14-2.95-.62-4.3-.9Z"/>
    <path class="b" d="m295.68,219.34v29.76c0,.1.08.17.17.17h4.39c.1,0,.17-.08.17-.17v-6.4c0-.1.08-.17.17-.17h22.58c.1,0,.17.08.17.17v6.43c0,.1.08.17.17.17h4.39c.1,0,.17-.08.17-.17v-29.79c0-.1-.08-.17-.17-.17h-32.04c-.1,0-.17.08-.17.17Zm4.73,9.51v-4.73c0-.1.08-.17.17-.17h22.58c.1,0,.17.08.17.17v4.73c0,.1-.08.17-.17.17h-22.58c-.1,0-.17-.08-.17-.17Zm0,8.73v-3.61c0-.1.08-.17.17-.17h22.58c.1,0,.17.08.17.17v3.61c0,.1-.08.17-.17.17h-22.58c-.1,0-.17-.08-.17-.17Z"/>
    <g>
      <path class="b" d="m171.88,219.16s-10.93,33.06-13.27,40.11c-1.8-4.12-3.02-6.62-5.2-12l-.68-1.67c-.05-.12-.22-.12-.26,0l-2.3,6.25,6.8,15.42h3.94s9.03-24.88,15.88-48.11h-4.91Z"/>
      <path class="b" d="m151.08,240.27c.94-2.75,1.63-4.85,1.96-5.93,1.04-3.37,1.54-6.34,1.22-8.85-.32-2.46-1.33-4.4-2.84-5.48-.19-.14-.6-.37-.95-.53-.57-.25-1.45-.33-1.79-.33-.45,0-1.28.04-1.85.34-.16.09-.28.15-.37.19l-.06.03c-.25.13-.34.17-.59.35-2.46,1.8-4.37,6.43-1.92,14.01.53,1.64,1.27,3.69,2.19,6.11-2.45,6.88-6.03,14.53-7.88,19.1-2.56-7.06-12.95-40.14-12.95-40.14h-4.9c5.71,19.24,15.74,48.12,15.74,48.12h3.97s3.6-7.76,9.08-21.69l.32-.82,1.57-4.37.04-.12Zm-2.56-7.32s0,.01,0,.02c-.04-.12-.08-.23-.11-.34-1.85-5.74-.39-8.3.21-8.74.02-.01.03-.02.05-.03,0,0,0,0,.02.01.59.42,1.72,3-.16,9.09Z"/>
    </g>
    <path class="b" d="m200.49,256.26l-.59.65c-3.05,3.36-5.92,5.03-8.78,5.11-.08,0-.16,0-.23,0-2.53,0-5.04-1.13-6.73-3.02-2.4-2.7-3.16-6.97-1.97-11.14.79-2.78,2.31-5.1,4.27-6.55,1.31-.97,2.98-1.5,4.68-1.5.83,0,1.62.13,2.36.38,1.25.42,2.87,1.39,3.51,3.62.14.5.27,1.21.05,1.79-.36.95-1.68,1.52-2.7,1.73-1.29.26-2.68.39-4.26.39-1.56,0-3.95-.6-3.95-.6l-.28.55c-.22.42-.71,1.62-.6,3.61l.03.6c0,.08.06.14.13.16.59.12,3.09.64,4.67.64,1.91,0,3.62-.16,5.24-.48,3.07-.62,5.45-2.43,6.35-4.84.55-1.47.58-3.17.07-4.91-.96-3.34-3.34-5.8-6.68-6.94-1.23-.42-2.55-.63-3.92-.63-2.78,0-5.5.87-7.65,2.46-2.83,2.09-5,5.35-6.09,9.17-1.65,5.78-.49,11.83,3.03,15.79,2.61,2.93,6.51,4.68,10.44,4.68.12,0,.24,0,.36,0,4.28-.11,8.31-2.31,12.32-6.73l.59-.65-3.67-3.33Z"/>
    <g>
      <path class="b" d="m50.66,263.3c0-.16-.14-.29-.31-.27l-.59.07c-1.29.15-1.9.16-3.09.16-3.44,0-6.7-.64-8.13-3.67-1-2.11-1.25-6.42-.72-12.46.43-4.91,1.3-10.03,1.91-12.92l.54-2.53c.04-.17-.09-.33-.27-.33l-11.07.02c-.09,0-.16.07-.17.16l-.45,4.46c0,.06.04.11.1.11h5.94c.11-.01.19.08.17.19-1.32,7.34-2.93,19.66-.25,25.33,1.62,3.41,4.93,5.49,9.85,6.16,1.14.16,1.22.24,2.52.24,1.04,0,3.11-.17,3.83-.23.14-.01.25-.13.25-.28l-.05-4.2Z"/>
      <path class="b" d="m71.15,220.9c0,.15-.02,15.16-.45,22.45-.28,4.7-1.68,9.09-4.91,12.53-2.93,3.12-4.61,4.89-10.38,6.82l.09,4.59c0,.11.21.17.21.17,2.56-.46,3.53-.86,4.61-1.34,6.06-2.7,14.33-9.19,15.11-22.51.43-7.31.46-22.58.46-22.73v-.66c0-.1-.08-.17-.17-.17h-4.39c-.1,0-.17.07-.17.17v.67Z"/>
      <path class="b" d="m63.31,245.62c3.13-4.83,2.89-11.84,2.88-12.14l-.03-.66c0-.1-.08-.17-.18-.17l-4.38.17c-.1,0-.17.08-.17.18l.02.66c0,.24.14,5.89-2.13,9.39l-.36.56c-.05.08-.03.19.05.24l3.68,2.38c.08.05.19.03.24-.05l.36-.56Z"/>
      <path class="b" d="m83.21,238.04c-.67-2.87-1.27-5.09-1.27-5.11l-.17-.65c-.02-.09-.12-.15-.21-.12l-4.24,1.14c-.09.02-.15.12-.12.21l.18.65c.06.23.62,2.34,1.23,4.96.61,2.6.86,4.73.87,4.82l.07.67c0,.1.1.16.19.15l4.36-.49c.1-.01.16-.1.15-.19l-.07-.66s-.27-2.39-.97-5.38Z"/>
      <path class="b" d="m99.02,237.19c-.87-3.01-1.67-5.3-1.76-5.56l-.22-.61c-.03-.09-.13-.13-.22-.1l-4.04,1.42c-.09.03-.13.13-.1.22l.22.62c.09.25.87,2.51,1.68,5.3.79,2.74.99,4.98.99,5.08l.05.65c0,.09.09.16.18.16l4.27-.33c.09,0,.16-.09.16-.18l-.05-.65c0-.11-.21-2.74-1.16-6.01Z"/>
      <path class="b" d="m86.05,260.97h4.39c.1-.01.17-.09.17-.19l.12-39.61c0-.1-.08-.18-.17-.18l-4.38.05c-.1,0-.17.08-.17.18l-.13,39.58c0,.1.08.18.17.18Z"/>
      <path class="b" d="m113.39,264.18c-.61-.54-5.97-5.54-5.98-13.69,0-2.64,0-28.01,0-30.35,0-.1-.08-.17-.17-.17h-4.39c-.1,0-.17.08-.17.17,0,2.34,0,27.7,0,30.35,0,10.45,6.88,16.63,7.66,17.3.12.1.41.34.58.48.07.06.18.05.24-.02l2.77-3.34c.06-.07.05-.17-.01-.23-.14-.14-.39-.38-.52-.5Z"/>
      <path class="b" d="m26.25,220.03l-4.38.11c-.1,0-.17.08-.17.18l.02.66c0,.2.1,4.76-.33,10.23,0,.09-.08.16-.17.16l-15.65.03c-.1,0-.17.08-.17.17v4.38c0,.1.09.17.18.17l15.09-.03c.11,0,.19.1.17.2-.52,3.66-1.24,6.62-2.15,8.8-3.26,7.85-8.82,13.57-18.01,18.55l-.58.32c-.08.05-.12.15-.07.23l2.09,3.85c.05.08.15.12.23.07l.58-.32c1.05-.57,2.09-1.17,3.1-1.79,8.33-5.13,13.74-11.2,17.03-19.1,3.79-9.12,3.41-25.37,3.39-26.06l-.02-.66c0-.1-.08-.17-.18-.17Z"/>
    </g>
  </g>
  <path class="b" d="m262.95,147.74l-.91-.34c-.14-.05-.28-.08-.46-.08,0,0-.86.07-.86.07l-.28.74c-3.22,8.58-12.15,22.18-22.4,22.19-1.36,0-2.72-.25-4.05-.73-7.72-2.74-10.16-14.41-11.42-24.27-.07-.5-.14-1.02-.22-1.56-.28-1.89-.56-3.85-.37-5.57.34-3.04,1.52-6.12,2.71-9.02.53-1.3,1.09-2.77,1.68-4.34,2.31-6.09,5.79-15.28,13.63-30.47,3.2-6.19,5.91-12.5,8.64-18.95,4.69-11.1,9.94-24.42,13.32-39.12l.18-.78c2.12-9.19,4.75-20.64-1.84-29.11-3.01-3.87-7.35-6.08-11.92-6.08-.67,0-1.34.05-2.01.14-4.09.57-8.25,3.12-11.41,6.97-6.01,7.35-8.45,17.52-10.61,26.49l-.06.26c-3.36,14-4.95,27.64-6.64,42.09l-.35,2.98c-1.08,9.24-2.15,18.67-3.19,28.03-.22,2.01-.41,4.03-.6,6.05v.1c-.64,6.73-1.29,13.69-3.17,20.22-2.04,7.08-7.35,14.36-15.79,21.65-6.94,6-15.18,9.3-23.2,9.3-.22,0-.45.01-.67.01-11.74,0-21.56-9.17-23.36-21.81-1.34-9.4.7-13.54,2.19-16.56,10.87-22.09,17.82-40.91,25.87-62.69,0,0,2.34-6.34,3.21-8.67,3.84-10.33,5.89-16.38,8.67-27.05,2.23-8.6,1.25-15.64-.42-19.37-2.26-5.05-6.12-7.87-11.48-8.38-.41-.04-.83-.06-1.24-.06-4.79,0-9.49,2.75-13.24,7.76-5.34,7.12-7.7,15.86-9.83,24.93-4.27,18.13-6.28,36.74-8.23,54.74l-.05.42c-.68,6.29-1.39,12.78-2.18,19.19-.27,2.18-.44,4.43-.61,6.6-.48,6.16-.97,12.54-3.69,18.01-3.36,6.77-7.44,12.51-13.64,19.2-3.78,4.08-9.52,9.94-15.57,13.7-2.86,1.77-6.87,2.91-10.21,2.91-1.95,0-3.59-.37-4.86-1.09-1.93-1.11-3.6-3.05-4.95-5.78-4.13-8.32-4.13-19.05-4.13-28.53v-1.44c-.01-12.58,1.27-24.97,2.38-34.36,2.64-22.16,6.52-44.41,11.55-66.14.32-1.38.98-3.4,1.23-4.1.32-.26,1.12-.82,1.77-1.27.78-.54,1.67-1.16,2.23-1.61,6-4.8,9.99-8.45,10.86-15.19.23-1.8.2-5.1-2.63-6.92C109.28.34,108.15,0,106.97,0c-1.37,0-2.75.47-3.98,1.37-1.96,1.42-3.07,3.62-3.98,5.78-1.7,4.05-2.99,8.3-3.81,12.62-.23,1.23-.74,3.17-.95,3.81-.5.36-2.04,1.26-3.12,1.76-7.43,3.44-15.18,6.27-23.05,8.4l-1.09.3,1.62,6.99,1.23-.41c7.87-2.62,15.41-6.19,22.44-10.6-7.36,25.06-14.7,52.11-18.95,80.41-1.83,12.19-3.69,28.26-1.86,44.51.73,6.43,2.43,15.64,8.82,21.35,3.82,3.41,8.92,5.21,14.77,5.21,4.72,0,9.76-1.22,14.17-3.44,13.24-6.66,21.42-19.78,28.54-32.88.58,9.31,2.97,17.15,7.11,23.31,5.59,8.33,14.74,13.1,25.12,13.1,3.13,0,6.29-.43,9.41-1.29,13.03-3.58,23.53-11.53,32.07-24.28.41,3.8,1.17,7.07,2.37,10.17,3.36,9.18,11.33,15.35,19.83,15.35,3.17,0,6.32-.83,9.38-2.5,10.43-6.52,16.08-18.13,20.64-29.72.12-.31.11-.65-.03-.95-.14-.3-.38-.53-.69-.65Zm-6.63-126.55l.04.38c1.47,13.34-4.17,28.87-8.71,41.35l-.31.85c-7.05,19.41-16.89,36.66-27.23,54.05.23-5.32.41-9.93.57-14.06v-.14c.64-16.41.96-24.81,2.87-38.95.83.7,1.85,1.08,2.88,1.08,9.76,0,17.76-23.87,19.22-29.77,4.56-18.49,4.25-24.96,1.94-28.31,2.31.19,4.45,1.52,6.08,3.81,1.87,2.63,2.27,6.23,2.65,9.71Zm-82.07-13.75c.16,0,.3.03.41.05,2.06.43,3.77,1.68,5.07,3.74,2.75,4.33,3.26,11.59,1.37,19.41-7.41,30.66-17.8,51.81-29.82,76.29l-1.01,2.05c-1.28,2.52-2.94,5.53-4.44,8.23.45-11.59,2.12-37.12,3.95-54.63.42.33.89.58,1.41.73.54.16,1.1.24,1.66.24,10.27,0,17.79-27.04,17.86-27.31,3.07-12.08,5.65-23.37,3.54-28.8Zm-68.66-1.74c.31,0,.65.05,1,.16,1.56.47,1.84,2.19,1.59,3.65-1.01,4.9-5.06,8.37-9.37,11.36.43-2.54,1.01-5.03,1.43-6.75.57-2,1.19-4,2.51-6.42.77-1.32,1.72-1.99,2.84-1.99Z"/>
</svg>