<svg xmlns="http://www.w3.org/2000/svg" id="_レイヤー_1" viewBox="0 0 340 86.62"><defs><style>.cls-2{fill:#fff}</style></defs><path d="M325.97 82.08H14.79c0-5.66-4.59-10.25-10.25-10.25V15.16c5.86 0 10.62-4.75 10.62-10.62h311.31c0 5.38 4.37 9.75 9.75 9.75v57.54c-5.66 0-10.25 4.59-10.25 10.25Z" style="fill:#2e2e2e"/><path d="M325.23 4.54c0 5.65 4.58 10.23 10.23 10.23v57.07c-5.65 0-10.23 4.58-10.23 10.23H14.77c0-5.65-4.58-10.23-10.23-10.23V15.15c5.86 0 10.61-4.75 10.61-10.61h310.07M329.76 0H10.23v.49c0 5.38-4.36 9.74-9.74 9.74H0v66.16h.49c5.38 0 9.75 4.36 9.75 9.75v.49h319.53v-.49c0-5.38 4.36-9.75 9.75-9.75h.49V10.23h-.49c-5.38 0-9.75-4.36-9.75-9.75v-.49Z" style="fill:#9e9e9e"/><path d="M23.03 23.2h12.33c-.24.88-.62 1.74-1.09 2.43-1.16 1.7-2.69 2.43-3.27 2.71l-.05.02a.53.53 0 0 0-.29.33c-.05.14-.04.3.03.44l.61 1.19c.07.13.18.23.32.28a.484.484 0 0 0 .42-.04c3.65-1.96 5.51-4.77 6.02-9.1a.579.579 0 0 0-.13-.44.533.533 0 0 0-.41-.19h-14.5c-.3 0-.55.25-.55.56v1.25c0 .31.25.56.55.56Z" class="cls-2"/><path d="M30.54 24.84a.513.513 0 0 0-.39-.16h-1.32c-.3 0-.55.25-.55.56-.02 3.68-.05 8.73-5.18 11.8-.13.08-.23.22-.26.37s0 .32.1.44l.82 1.12a.541.541 0 0 0 .74.14c5.69-3.76 6.18-8.71 6.2-13.87 0-.15-.06-.29-.16-.4Zm24.82-3.33a.527.527 0 0 0-.14-.43.524.524 0 0 0-.41-.18h-9.05c-.22 0-.42.14-.51.35-.89 2.18-2.54 4.89-4.51 6.57-.21.18-.26.5-.1.74l.74 1.12c.09.13.23.22.38.24.16.02.31-.02.43-.13 2.29-1.98 3.72-4.52 4.77-6.57h5.7c-1.1 7.58-4.56 11.97-10.58 13.85-.15.05-.28.16-.34.31s-.06.32 0 .46l.56 1.23c.09.2.29.32.5.32.06 0 .12 0 .18-.03 7.26-2.52 11.43-8.38 12.37-17.85Zm15.22 17.36c1.98 0 2.86-.16 3.44-.27a.55.55 0 0 0 .45-.56l-.02-1.28c0-.17-.08-.33-.21-.43-.13-.1-.3-.14-.46-.11-.85.19-2.08.31-3.31.31h-3.08c-1.7 0-2.1-.19-2.1-2.1v-7.41l6.67-.66c-.34 1.56-1.09 3.58-4.08 5.1-.14.07-.24.2-.29.35-.04.15-.01.32.07.45l.67 1.04c.16.24.47.32.72.19 1.28-.69 5.16-2.81 5.61-9.06a.602.602 0 0 0-.16-.44.587.587 0 0 0-.44-.16l-8.78.81v-3.23c0-.31-.25-.56-.55-.56h-1.3c-.3 0-.55.25-.55.56v3.46l-3.51.32c-.29.03-.52.29-.5.59l.07 1.28c0 .15.08.29.19.39s.26.15.41.13l3.35-.33v7.15c0 3.24 1.23 4.45 4.54 4.45h3.15ZM94.7 25.06a.572.572 0 0 0-.21-.61l-1.13-.8a.52.52 0 0 0-.51-.06c-.17.06-.3.21-.34.39-2.22 9.13-5.75 11.28-11.92 12.21a.53.53 0 0 0-.37.23c-.09.12-.12.28-.09.43l.26 1.43c.05.27.28.46.54.46h.09c9.62-1.66 11.81-6.93 13.68-13.65Zm-14.99 3.19c2.41.85 3.13 1.36 4.88 2.59.09.07.2.1.31.1.05 0 .1 0 .14-.02.16-.04.29-.15.36-.3l.56-1.23c.11-.25.03-.55-.2-.7-1.68-1.13-2.87-1.88-5.25-2.68a.555.555 0 0 0-.69.33l-.46 1.19c-.05.14-.05.3.01.44.06.14.18.24.32.29Zm1.34-5.1c2.26.84 3.38 1.5 4.91 2.57.09.07.2.1.31.1.05 0 .09 0 .14-.02.16-.04.29-.15.36-.3l.59-1.23c.12-.26.03-.56-.2-.71l-.19-.12c-1.07-.69-2.53-1.63-5.1-2.47a.552.552 0 0 0-.68.32l-.46 1.12c-.06.14-.05.3 0 .44.06.14.17.25.31.3Zm31.2 15.22c.28-.04.48-.29.47-.57l-.04-1.25c0-.16-.08-.31-.2-.41s-.29-.14-.44-.12c-1.12.2-2.86.29-4.09.29h-4.21c-2.38 0-2.38-.16-2.38-1.41v-5.01c5.15-1.53 8-3.07 9.25-3.87a.567.567 0 0 0 .15-.81l-.76-1.06a.554.554 0 0 0-.75-.14c-1.88 1.28-4.86 2.58-7.89 3.48v-6.16c0-.31-.25-.56-.55-.56h-1.26c-.3 0-.55.25-.55.56v13.6c0 2.81 1.09 3.67 4.67 3.67h4.17c1.04 0 3.14-.05 4.42-.24Zm7.28-4.88h1.3c.3 0 .55-.25.55-.56V21.41c0-.31-.25-.56-.55-.56h-1.3c-.3 0-.55.25-.55.56v11.52c0 .31.25.56.55.56Zm.38 3.69c-.1.13-.13.3-.09.46l.28 1.21c.06.25.28.43.54.43h.04c5.35-.43 10.3-1.84 10.3-9.23v-9.12c0-.31-.25-.56-.55-.56h-1.32c-.3 0-.55.25-.55.56v9.38c0 4.56-2.15 6.3-8.23 6.64-.16 0-.31.09-.41.22Zm31.12-9.09v-1.21c0-.31-.25-.56-.55-.56H136c-.3 0-.55.25-.55.56v1.21c0 .31.25.56.55.56h6.66v.28c0 3.54-.44 6.82-5.77 8.13-.16.04-.29.15-.37.3-.07.15-.07.32 0 .48l.52 1.17c.09.2.29.33.5.33.05 0 .1 0 .15-.02l.07-.02c2.89-.86 7.25-2.15 7.25-10.53v-.11h5.46c.3 0 .55-.25.55-.56Zm-13.55-4.91h11.5c.3 0 .55-.25.55-.56v-1.23c0-.31-.25-.56-.55-.56h-11.5c-.3 0-.55.25-.55.56v1.23c0 .31.25.56.55.56Zm28.42 1.09-1.15-.63a.548.548 0 0 0-.71.17c-4.39 6.42-9.78 8.59-10.82 8.96-.15.05-.27.17-.33.31-.06.15-.06.31.01.45l.54 1.17c.13.28.45.4.73.27 2.42-1.14 4-2.06 5.58-3.3v7.26c0 .31.25.56.55.56h1.17c.3 0 .55-.25.55-.56v-9.25c1.58-1.54 2.89-2.93 4.07-4.61.09-.13.12-.29.09-.45a.542.542 0 0 0-.28-.36ZM38.21 49.83h-7.33c.08-1.02.12-1.77.21-3.88v-.29c.02-.15-.03-.3-.14-.41s-.24-.17-.39-.18l-1.57-.02c-.15 0-.29.06-.4.16a.55.55 0 0 0-.16.4c.02 1.69 0 2.72-.11 4.21h-5.38c-.3 0-.55.25-.55.56v1.44c0 .31.25.56.55.56h5.11c-.65 4.98-1.67 9.33-6.07 12.42-.12.08-.2.21-.23.36s0 .3.09.42l.87 1.26c.08.12.21.21.36.23h.09c.12 0 .23-.04.32-.11 4.21-3.1 6.3-7.35 7.15-14.6h5.54v2.66c0 4.02-.28 7.02-.41 7.78-.2 1.16-.39 1.59-1.69 1.59-1.01 0-2.08-.14-3.09-.4a.55.55 0 0 0-.48.11c-.14.11-.21.28-.21.45l.05 1.53c0 .25.17.46.41.52.99.27 2.03.39 3.25.39 3.04 0 3.87-1.32 4.27-3.6.27-1.45.48-5.23.48-8.42v-4.6c0-.31-.25-.56-.55-.56Zm11.89 2.88h.1c.16-.03.3-.14.38-.28l.77-1.46c.12-.23.07-.52-.13-.69-1.45-1.23-3.22-2.22-6.52-3.65-.27-.12-.58 0-.71.26l-.7 1.41c-.07.14-.08.3-.02.45.05.15.17.26.31.32 2.48 1.03 4.14 1.78 6.17 3.52.1.09.23.13.36.13Zm10.58-2.76-1.24-.89a.548.548 0 0 0-.51-.07c-.17.06-.3.21-.34.39-.43 1.79-1.58 6.54-5.29 10.6-3.3 3.65-6.82 4.09-9.18 4.38-.15.02-.28.1-.37.22-.09.12-.13.28-.1.43l.27 1.61c.05.27.28.46.54.46h.07c8.25-1.01 13.61-6.41 16.37-16.52a.572.572 0 0 0-.21-.61Zm72.37 2.76h.1c.16-.03.3-.14.38-.29l.77-1.46c.12-.23.07-.52-.13-.69-1.45-1.23-3.21-2.22-6.52-3.65-.27-.12-.58 0-.71.26l-.7 1.41c-.07.14-.08.3-.02.45.05.15.17.26.31.32 2.48 1.03 4.14 1.78 6.17 3.52.1.09.23.13.36.13Zm10.58-2.76-1.24-.89a.548.548 0 0 0-.51-.07c-.17.06-.3.21-.34.39-.43 1.79-1.58 6.54-5.29 10.6-3.3 3.65-6.82 4.09-9.18 4.38-.15.02-.28.1-.37.22-.09.12-.13.28-.1.43l.27 1.61c.05.27.28.46.54.46h.07c8.25-1.01 13.61-6.41 16.37-16.52a.572.572 0 0 0-.21-.61ZM80.7 46.5H65.27c-.3 0-.55.25-.55.56v1.46c0 .31.25.56.55.56h13.22c-.27 3.24-.96 9.13-5.32 12.47-2.16 1.64-5.06 2.65-6 2.9a.562.562 0 0 0-.37.75l.55 1.39c.09.22.29.35.51.35.05 0 .1 0 .16-.02 10.23-3.08 12.65-9.87 13.24-19.82 0-.15-.04-.3-.15-.42s-.25-.18-.4-.18Zm18.62 3.67H85.3c-.3 0-.55.25-.55.56v1.29c0 .31.25.56.55.56h11.82c-.92 3.15-3.37 4.19-4.2 4.55-.15.06-.26.19-.31.35s-.03.33.06.47l.72 1.14a.532.532 0 0 0 .72.19c1.94-1.08 5.18-2.88 5.75-8.48a.527.527 0 0 0-.14-.43.524.524 0 0 0-.41-.18Z" class="cls-2"/><path d="M92.31 53.76a.522.522 0 0 0-.39-.17h-1.37c-.15 0-.29.06-.39.17-.1.11-.16.25-.16.4.05 5.69-.65 8.64-4.94 11.07a.558.558 0 0 0-.15.84l.87 1.06c.11.13.26.2.42.2.1 0 .2-.03.3-.09 4.98-3.22 5.87-6.64 5.97-13.09a.55.55 0 0 0-.16-.4Zm29.3-1.94-1.32-.72a.551.551 0 0 0-.5-.01c-.16.08-.27.23-.3.41-.36 2.11-1.7 6.75-4.17 9.2-.63.64-2.26 2.31-6.81 3.21V45.92c0-.31-.25-.56-.55-.56h-1.52c-.3 0-.55.25-.55.56v20.3c0 .16.07.31.18.41.1.09.23.15.37.15h.05c8.02-.78 10.78-4.32 11.69-5.48 1.85-2.4 3.33-6.96 3.71-8.87a.557.557 0 0 0-.28-.6Zm40.21 8.49c-.78-.87-1.5-1.61-3.09-3.16 1.51-2.54 2.93-5.28 3.99-9.95a.53.53 0 0 0-.11-.47.545.545 0 0 0-.43-.21h-13.22c-.3 0-.55.25-.55.56v1.39c0 .31.25.56.55.56h10.67c-2.96 9.65-8.67 13.92-11.87 15.62a.58.58 0 0 0-.28.35c-.04.15-.02.31.06.44l.77 1.26c.1.17.28.26.47.26.09 0 .19-.02.27-.07 4.17-2.41 6.62-5.27 8.29-7.61 3.99 4.23 5.82 6.75 6.15 7.31.09.15.24.25.41.27s.34-.04.46-.17l1.17-1.24c.18-.2.2-.5.05-.71-.52-.73-1.13-1.44-3.76-4.43Zm49.38-18.57h-22.28c-.3 0-.55.25-.55.56v4.14c-2.09-2.42-3.39-4.62-3.96-5.68 2.45-4.15 3.69-7.65 4.41-9.93.02-.05.03-.11.03-.17v-2.48c0-.31-.25-.56-.55-.56h-4.9v-8.3c0-.31-.25-.56-.55-.56h-2.49c-.3 0-.55.25-.55.56v8.3h-5.01c-.3 0-.55.25-.55.56v2.48c0 .31.25.56.55.56h10.18c-2.33 6.49-6.19 12.18-11.48 16.92-.19.17-.24.46-.12.69l1.35 2.48c.08.15.22.25.39.28.16.03.33-.02.46-.13 1.83-1.63 3.09-2.88 4.23-4.2v19.62c0 .31.25.56.55.56h2.49c.3 0 .55-.25.55-.56V45.62c.84 1.38 1.72 2.68 2.65 3.86.11.14.27.21.45.21.17 0 .33-.09.43-.23l1.44-2.06v18.55c0 .31.25.56.55.56h22.28c.3 0 .55-.25.55-.56V42.31c0-.31-.25-.56-.55-.56Zm-12.96 13.79v7.52h-6.33v-7.52h6.33Zm-6.33-3.29v-7.06h6.33v7.06h-6.33Zm16.3 3.29v7.52h-6.48v-7.52h6.48Zm-6.48-3.29v-7.06h6.48v7.06h-6.48Z" class="cls-2"/><path d="M212.76 20.53h-25.04c-.3 0-.55.25-.55.56v2.38c0 .31.25.56.55.56h25.04c.3 0 .55-.25.55-.56v-2.38c0-.31-.25-.56-.55-.56Zm-2.8 18.66c.3 0 .55-.25.55-.56V27.2c0-.31-.25-.56-.55-.56h-19.58c-.3 0-.55.25-.55.56v11.43c0 .31.25.56.55.56h19.58Zm-3.04-9.11v5.71h-13.55v-5.71h13.55Zm40.63 29.19V41.63c0-.31-.25-.56-.55-.56h-2.49c-.3 0-.55.25-.55.56v14.5h-5.81V37.85h11.08c.3 0 .55-.25.55-.56v-2.53c0-.31-.25-.56-.55-.56h-6.35c.8-2.06 1.56-4.74 2.09-6.58.1-.34.19-.65.27-.93.04-.15.02-.3-.05-.44a.524.524 0 0 0-.34-.26l-2.65-.67a.52.52 0 0 0-.42.07c-.13.08-.22.21-.25.35-.69 3.07-1.38 5.7-2.48 8.46h-5.64c-.87-3.65-2.22-7.43-2.62-8.54a.54.54 0 0 0-.66-.34l-2.49.67c-.15.04-.28.15-.35.29a.53.53 0 0 0-.01.46c.89 2.18 1.5 4.13 2.43 7.45h-6.18c-.3 0-.55.25-.55.56v2.53c0 .31.25.56.55.56h10.98v18.28h-5.76v-14.5c0-.31-.25-.56-.55-.56h-2.49c-.3 0-.55.25-.55.56v17.64c0 .31.25.56.55.56h21.3c.3 0 .55-.25.55-.56Z" class="cls-2"/><path d="M254.11 20.74h-35.48c-.3 0-.55.25-.55.56v45.63c0 .31.25.56.55.56h2.65c.3 0 .55-.25.55-.56V24.44h29.08v38.14c0 .99-.12.99-.63.99l-6.28-.16a.56.56 0 0 0-.42.18c-.11.12-.16.28-.14.44l.36 2.95c.03.28.27.49.55.49h6.49c2.79 0 3.82-1.29 3.82-4.75V21.3c0-.31-.25-.56-.55-.56Zm-143.4-.67-.09-.16a.384.384 0 0 0-.52-.16l-.94.49a.391.391 0 0 0-.16.53l.09.16c.6 1.11 1.07 1.99 1.52 3.43.03.11.12.2.22.24a.401.401 0 0 0 .33-.01l1-.51c.17-.09.25-.29.19-.47-.47-1.4-1.04-2.44-1.64-3.55Zm4.28 2.87c-.46-1.39-1.2-2.75-1.71-3.64a.391.391 0 0 0-.51-.16l-.96.47c-.1.05-.17.13-.2.23s-.02.21.03.31c.45.82 1.14 2.06 1.6 3.54.03.11.12.2.22.24a.401.401 0 0 0 .33-.01l1-.51c.17-.09.25-.29.19-.47Z" class="cls-2"/><path d="M290.83 41.15c-.23 1.33-.65 2.61-1.26 3.81 1.22.62 2.33 1.41 3.3 2.35.98-.95 2.09-1.74 3.3-2.36-.61-1.21-1.04-2.49-1.26-3.81-1.36.2-2.73.2-4.08 0Z" style="fill:none"/><path d="M281.8 35.76c-2.24-3.03-3-6.67-2.43-10.1-2.04-.3-4.17-.17-6.27.5-7.19 2.29-11.13 9.88-8.79 16.94 1.16 3.5 3.64 6.21 6.72 7.78 3.14 1.6 6.9 2.01 10.53.85 3.63-1.16 6.43-3.67 8.01-6.77.61-1.2 1.03-2.48 1.26-3.81-3.5-.52-6.79-2.35-9.04-5.39Z" style="fill:#d26e78"/><path d="M303.95 19.96c-4.44-6.01-13.01-7.34-19.12-2.97a13.385 13.385 0 0 0-5.46 8.68c-.58 3.42.18 7.07 2.43 10.1 2.24 3.03 5.54 4.87 9.04 5.39 1.35.2 2.72.2 4.08 0-.58-3.43.18-7.07 2.43-10.1 2.24-3.03 5.53-4.87 9.03-5.39-.34-2-1.12-3.95-2.42-5.7Z" style="fill:#d2c86e"/><path d="M316.46 28.08a13.837 13.837 0 0 0-10.09-2.41c-3.5.52-6.79 2.35-9.03 5.39-2.24 3.03-3 6.67-2.43 10.1.22 1.32.65 2.6 1.26 3.81 3.14-1.6 6.9-2.01 10.53-.86 3.63 1.16 6.42 3.66 8.01 6.77 1.83-.93 3.48-2.27 4.77-4.02 4.44-6.01 3.09-14.41-3.03-18.77Z" style="fill:#91aa78"/><path d="M314.72 50.87c-1.58-3.1-4.38-5.61-8.01-6.77-3.63-1.16-7.39-.74-10.53.86-1.21.62-2.32 1.41-3.3 2.36 2.52 2.44 4.09 5.82 4.09 9.57s-1.56 7.13-4.08 9.57c1.47 1.42 3.27 2.55 5.37 3.22 7.19 2.29 14.92-1.57 17.25-8.63 1.16-3.5.77-7.12-.78-10.17Z" style="fill:#5a5fa0"/><path d="M292.88 47.31c-.97-.94-2.08-1.73-3.3-2.35-1.58 3.11-4.38 5.61-8.01 6.77-3.63 1.16-7.39.74-10.53-.85-.92 1.81-1.46 3.84-1.46 6.01 0 7.42 6.13 13.44 13.69 13.44 3.75 0 7.14-1.48 9.61-3.87 2.52-2.44 4.08-5.82 4.08-9.57s-1.57-7.13-4.09-9.57Z" style="fill:#a078af"/></svg>