<svg xmlns="http://www.w3.org/2000/svg" xml:space="preserve" style="enable-background:new 0 0 140 140" viewBox="0 0 140 140"><path d="M66.2 67.6c-.4 2.6-1.2 5.1-2.4 7.4 2.3 1.2 4.4 2.7 6.2 4.6 1.8-1.8 3.9-3.4 6.2-4.6-1.2-2.3-2-4.8-2.4-7.4-2.5.4-5.1.4-7.6 0z" style="fill:none"/><path d="M49.2 57.2c-4.2-5.9-5.6-12.9-4.6-19.6-3.8-.6-7.9-.3-11.8 1C19.3 43 11.9 57.7 16.3 71.4c2.2 6.8 6.8 12 12.6 15.1 5.9 3.1 13 3.9 19.8 1.7C55.6 85.9 60.8 81 63.8 75c1.1-2.3 1.9-4.8 2.4-7.4-6.6-1-12.8-4.5-17-10.4z" style="fill:#d26e78"/><path d="M90.8 26.6c-8.4-11.6-24.5-14.2-36-5.8-5.7 4.2-9.2 10.3-10.3 16.8-1.1 6.6.4 13.7 4.6 19.6s10.4 9.4 17 10.4c2.5.4 5.1.4 7.7 0-1.1-6.6.3-13.7 4.6-19.6 4.2-5.9 10.4-9.4 17-10.4-.6-3.9-2.1-7.6-4.6-11z" style="fill:#d2c86e"/><path d="M114.4 42.3c-5.7-4.2-12.5-5.7-19-4.7-6.6 1-12.8 4.6-17 10.4-4.2 5.9-5.7 12.9-4.6 19.6.4 2.6 1.2 5 2.4 7.4 5.9-3.1 13-3.9 19.8-1.7 6.8 2.2 12.1 7.1 15.1 13.1 3.4-1.8 6.6-4.4 9-7.8 8.3-11.6 5.8-27.8-5.7-36.3z" style="fill:#91aa78"/><path d="M111.1 86.5c-3-6-8.2-10.9-15.1-13.1-6.8-2.2-13.9-1.4-19.8 1.7-2.3 1.2-4.4 2.7-6.2 4.6a26.3 26.3 0 0 1 7.7 18.6c0 7.3-2.9 13.8-7.7 18.5 2.8 2.8 6.2 4.9 10.1 6.2 13.5 4.4 28.1-3 32.5-16.7 2.2-6.9 1.4-13.9-1.5-19.8z" style="fill:#5a5fa0"/><path d="M70 79.6c-1.8-1.8-3.9-3.3-6.2-4.6-3 6-8.2 10.9-15.1 13.1-6.8 2.2-13.9 1.4-19.8-1.7-1.7 3.5-2.7 7.4-2.7 11.6 0 14.4 11.5 26.1 25.8 26.1 7 0 13.4-2.9 18.1-7.5 4.7-4.7 7.7-11.3 7.7-18.5-.1-7.2-3-13.8-7.8-18.5z" style="fill:#a078af"/></svg>